<svg width="48" height="48" viewBox="0 0 48 48" fill="none" xmlns="http://www.w3.org/2000/svg">
<rect width="48" height="48" rx="24" fill="white" fill-opacity="0.4"/>
<path fill-rule="evenodd" clip-rule="evenodd" d="M14.2929 24.7071C13.9024 24.3166 13.9024 23.6834 14.2929 23.2929L18.2929 19.2929C18.6834 18.9024 19.3166 18.9024 19.7071 19.2929C20.0976 19.6834 20.0976 20.3166 19.7071 20.7071L16.4142 24L19.7071 27.2929C20.0976 27.6834 20.0976 28.3166 19.7071 28.7071C19.3166 29.0976 18.6834 29.0976 18.2929 28.7071L14.2929 24.7071Z" fill="white"/>
<path fill-rule="evenodd" clip-rule="evenodd" d="M14 24C14 23.4477 14.4477 23 15 23L27 23C27.5523 23 28 23.4477 28 24C28 24.5523 27.5523 25 27 25L15 25C14.4477 25 14 24.5523 14 24Z" fill="white"/>
<path fill-rule="evenodd" clip-rule="evenodd" d="M24 31C24 30.4477 24.4477 30 25 30L30 30C31.1046 30 32 29.1046 32 28L32 20C32 18.8954 31.1046 18 30 18L25 18C24.4477 18 24 17.5523 24 17C24 16.4477 24.4477 16 25 16L30 16C32.2091 16 34 17.7909 34 20L34 28C34 30.2091 32.2091 32 30 32L25 32C24.4477 32 24 31.5523 24 31Z" fill="white"/>
</svg>
