<svg width="20" height="20" viewBox="0 0 20 20" fill="none" xmlns="http://www.w3.org/2000/svg">
<path fill-rule="evenodd" clip-rule="evenodd" d="M7.70825 17.5C7.70825 17.1548 7.98807 16.875 8.33325 16.875L11.6666 16.875C12.0118 16.875 12.2916 17.1548 12.2916 17.5C12.2916 17.8452 12.0118 18.125 11.6666 18.125L8.33325 18.125C7.98807 18.125 7.70825 17.8452 7.70825 17.5Z" fill="white"/>
<path fill-rule="evenodd" clip-rule="evenodd" d="M2.70825 9.16667C2.70825 5.13959 5.97284 1.875 9.99992 1.875C14.027 1.875 17.2916 5.13959 17.2916 9.16667V12.9167C17.2916 14.4124 16.079 15.625 14.5833 15.625H5.41659C3.92081 15.625 2.70825 14.4124 2.70825 12.9167V9.16667ZM9.99992 3.125C6.6632 3.125 3.95825 5.82995 3.95825 9.16667V12.9167C3.95825 13.7221 4.61117 14.375 5.41659 14.375H14.5833C15.3887 14.375 16.0416 13.7221 16.0416 12.9167V9.16667C16.0416 5.82995 13.3366 3.125 9.99992 3.125Z" fill="white"/>
</svg>
